<svg xmlns="http://www.w3.org/2000/svg" viewBox="0 0 320 640" width="320" height="640">
  <defs><clipPath id="frame"><rect x="0" y="0" width="320" height="640" rx="28"/></clipPath></defs>
  <g clip-path="url(#frame)">
    <rect width="320" height="640" fill="#f3f6f2"/>

    <text x="30" y="42" font-family="Arial, sans-serif" font-size="18" fill="#006837">‹</text>
    <text x="160" y="42" font-family="Arial, sans-serif" font-size="18" font-weight="800" fill="#0f172a" text-anchor="middle">Payments</text>

    <!-- green summary card -->
    <rect x="20" y="66" width="280" height="292" rx="24" fill="#1f7a45"/>
    <text x="42" y="100" font-family="Arial, sans-serif" font-size="10" fill="#cdeadb">Account Name</text>
    <text x="42" y="122" font-family="Arial, sans-serif" font-size="15" font-weight="800" fill="#ffffff">Jake Viking A. De la Cruz</text>
    <line x1="42" y1="140" x2="278" y2="140" stroke="#ffffff" stroke-opacity="0.25"/>

    <text x="42" y="168" font-family="Arial, sans-serif" font-size="11" fill="#cdeadb">Monthly Fee</text>
    <text x="278" y="168" font-family="Arial, sans-serif" font-size="13" font-weight="800" fill="#ffffff" text-anchor="end">₱ 0.00</text>
    <line x1="42" y1="184" x2="278" y2="184" stroke="#ffffff" stroke-opacity="0.25"/>

    <text x="42" y="216" font-family="Arial, sans-serif" font-size="13" fill="#ffffff">Total Amount Due</text>
    <text x="278" y="218" font-family="Arial, sans-serif" font-size="20" font-weight="900" fill="#ffffff" text-anchor="end">₱ 0.00</text>

    <rect x="42" y="238" width="236" height="42" rx="14" fill="none" stroke="#ffffff" stroke-opacity="0.7"/>
    <text x="160" y="264" font-family="Arial, sans-serif" font-size="12" font-weight="800" fill="#ffffff" text-anchor="middle">View Bill</text>

    <text x="160" y="304" font-family="Arial, sans-serif" font-size="11" font-weight="700" fill="#ffffff" text-anchor="middle">📅  Pay in Advance</text>

    <!-- transaction history -->
    <rect x="20" y="378" width="4" height="16" fill="#006837"/>
    <text x="32" y="391" font-family="Arial, sans-serif" font-size="16" font-weight="800" fill="#0f172a">Transaction History</text>

    <!-- unpaid row -->
    <rect x="20" y="404" width="280" height="66" rx="16" fill="#ffffff"/>
    <rect x="34" y="418" width="38" height="38" rx="10" fill="#fde3e3"/>
    <text x="53" y="442" font-family="Arial, sans-serif" font-size="16" text-anchor="middle">🧾</text>
    <text x="84" y="432" font-family="Arial, sans-serif" font-size="12" font-weight="800" fill="#0f172a">Monthly Due</text>
    <text x="84" y="448" font-family="Arial, sans-serif" font-size="9" fill="#94a3b8">Due: Sep 30, 2026</text>
    <text x="284" y="432" font-family="Arial, sans-serif" font-size="13" font-weight="800" fill="#dc2626" text-anchor="end">₱150.00</text>
    <rect x="238" y="440" width="46" height="18" rx="9" fill="#fde3e3"/>
    <text x="261" y="452" font-family="Arial, sans-serif" font-size="8" font-weight="800" fill="#dc2626" text-anchor="middle">Unpaid</text>

    <!-- paid rows -->
    <g>
      <rect x="20" y="478" width="280" height="60" rx="16" fill="#ffffff"/>
      <circle cx="53" cy="508" r="19" fill="#e2f2e8"/>
      <path d="M45 508 l6 6 l12 -12" fill="none" stroke="#006837" stroke-width="3" stroke-linecap="round" stroke-linejoin="round"/>
      <text x="84" y="503" font-family="Arial, sans-serif" font-size="12" font-weight="800" fill="#0f172a">Payment Success</text>
      <text x="84" y="518" font-family="Arial, sans-serif" font-size="8.5" fill="#94a3b8">2026-09-09 5:13 PM</text>
      <text x="284" y="503" font-family="Arial, sans-serif" font-size="13" font-weight="800" fill="#006837" text-anchor="end">₱150.00</text>
      <rect x="252" y="510" width="32" height="18" rx="9" fill="#e2f2e8"/>
      <text x="268" y="522" font-family="Arial, sans-serif" font-size="8" font-weight="800" fill="#006837" text-anchor="middle">Paid</text>
    </g>
    <g>
      <rect x="20" y="546" width="280" height="60" rx="16" fill="#ffffff"/>
      <circle cx="53" cy="576" r="19" fill="#e2f2e8"/>
      <path d="M45 576 l6 6 l12 -12" fill="none" stroke="#006837" stroke-width="3" stroke-linecap="round" stroke-linejoin="round"/>
      <text x="84" y="571" font-family="Arial, sans-serif" font-size="12" font-weight="800" fill="#0f172a">Payment Success</text>
      <text x="84" y="586" font-family="Arial, sans-serif" font-size="8.5" fill="#94a3b8">2026-09-09 5:13 PM</text>
      <text x="284" y="571" font-family="Arial, sans-serif" font-size="13" font-weight="800" fill="#006837" text-anchor="end">₱150.00</text>
      <rect x="252" y="578" width="32" height="18" rx="9" fill="#e2f2e8"/>
      <text x="268" y="590" font-family="Arial, sans-serif" font-size="8" font-weight="800" fill="#006837" text-anchor="middle">Paid</text>
    </g>
  </g>
</svg>
